<svg width="1440" height="980" viewBox="0 0 1440 980" fill="none" xmlns="http://www.w3.org/2000/svg">
  <rect width="1440" height="980" fill="#F5F5F4"/>
  <text x="72" y="96" fill="#111111" font-family="Arial, Helvetica, sans-serif" font-size="42" font-weight="700">Admin Editor Preview</text>
  <text x="72" y="140" fill="#78716C" font-family="Arial, Helvetica, sans-serif" font-size="20">Profile editing, link management, and live preview in one responsive dashboard.</text>

  <rect x="72" y="188" width="760" height="724" rx="36" fill="white" stroke="#E7E5E4"/>
  <rect x="872" y="188" width="496" height="724" rx="36" fill="white" stroke="#E7E5E4"/>

  <rect x="112" y="232" width="180" height="14" rx="7" fill="#A8A29E"/>
  <rect x="112" y="260" width="280" height="26" rx="13" fill="#111111"/>
  <rect x="598" y="236" width="90" height="42" rx="21" fill="#111111"/>
  <rect x="702" y="236" width="90" height="42" rx="21" fill="#FAFAF9" stroke="#D6D3D1"/>

  <rect x="112" y="332" width="292" height="82" rx="24" fill="#FAFAF9" stroke="#E7E5E4"/>
  <rect x="428" y="332" width="364" height="82" rx="24" fill="#FAFAF9" stroke="#E7E5E4"/>
  <rect x="112" y="434" width="680" height="114" rx="28" fill="#FAFAF9" stroke="#E7E5E4"/>
  <rect x="112" y="572" width="332" height="82" rx="24" fill="#FAFAF9" stroke="#E7E5E4"/>
  <rect x="460" y="572" width="332" height="82" rx="24" fill="#FAFAF9" stroke="#E7E5E4"/>
  <rect x="112" y="684" width="680" height="188" rx="28" fill="#FAFAF9" stroke="#E7E5E4"/>

  <rect x="132" y="712" width="132" height="16" rx="8" fill="#111111"/>
  <rect x="674" y="704" width="98" height="38" rx="19" fill="#FAFAF9" stroke="#D6D3D1"/>

  <rect x="132" y="760" width="640" height="88" rx="24" fill="white" stroke="#E7E5E4"/>
  <rect x="156" y="784" width="190" height="14" rx="7" fill="#111111"/>
  <rect x="156" y="810" width="260" height="12" rx="6" fill="#A8A29E"/>
  <rect x="542" y="780" width="58" height="24" rx="12" fill="#FAFAF9" stroke="#D6D3D1"/>
  <rect x="614" y="780" width="58" height="24" rx="12" fill="#FAFAF9" stroke="#D6D3D1"/>
  <rect x="686" y="780" width="58" height="24" rx="12" fill="#FEE2E2"/>

  <rect x="900" y="228" width="440" height="650" rx="28" fill="#FAFAF9" stroke="#E7E5E4"/>
  <rect x="1012" y="278" width="216" height="216" rx="108" fill="#D6D3D1"/>
  <rect x="1044" y="526" width="152" height="24" rx="12" fill="#111111"/>
  <rect x="968" y="566" width="304" height="14" rx="7" fill="#A8A29E"/>
  <rect x="994" y="590" width="252" height="14" rx="7" fill="#E7E5E4"/>
  <rect x="936" y="640" width="368" height="88" rx="24" fill="white" stroke="#E7E5E4"/>
  <rect x="936" y="748" width="368" height="88" rx="24" fill="white" stroke="#E7E5E4"/>
</svg>
