<svg width="1440" height="980" viewBox="0 0 1440 980" fill="none" xmlns="http://www.w3.org/2000/svg">
  <rect width="1440" height="980" fill="#F5F5F4"/>
  <g opacity="0.95">
    <circle cx="1230" cy="150" r="170" fill="#D6D3D1"/>
    <circle cx="210" cy="840" r="220" fill="#E7E5E4"/>
  </g>
  <rect x="480" y="68" width="480" height="844" rx="40" fill="white"/>
  <rect x="480" y="68" width="480" height="844" rx="40" stroke="#E7E5E4"/>
  <circle cx="720" cy="194" r="62" fill="#D6D3D1"/>
  <circle cx="720" cy="194" r="54" fill="#A8A29E"/>
  <rect x="613" y="284" width="214" height="28" rx="14" fill="#111111"/>
  <rect x="564" y="328" width="312" height="16" rx="8" fill="#D6D3D1"/>
  <rect x="595" y="352" width="250" height="16" rx="8" fill="#E7E5E4"/>

  <rect x="530" y="420" width="380" height="104" rx="28" fill="#FAFAF9" stroke="#E7E5E4"/>
  <rect x="554" y="446" width="48" height="48" rx="16" fill="#111111"/>
  <rect x="622" y="446" width="148" height="18" rx="9" fill="#111111"/>
  <rect x="622" y="474" width="190" height="14" rx="7" fill="#A8A29E"/>
  <rect x="824" y="446" width="62" height="24" rx="12" fill="#111111"/>

  <rect x="530" y="540" width="380" height="104" rx="28" fill="#FAFAF9" stroke="#E7E5E4"/>
  <rect x="554" y="566" width="48" height="48" rx="16" fill="#111111"/>
  <rect x="622" y="566" width="130" height="18" rx="9" fill="#111111"/>
  <rect x="622" y="594" width="210" height="14" rx="7" fill="#A8A29E"/>
  <rect x="824" y="566" width="62" height="24" rx="12" fill="#111111"/>

  <rect x="530" y="660" width="380" height="104" rx="28" fill="#FAFAF9" stroke="#E7E5E4"/>
  <rect x="554" y="686" width="48" height="48" rx="16" fill="#111111"/>
  <rect x="622" y="686" width="116" height="18" rx="9" fill="#111111"/>
  <rect x="622" y="714" width="168" height="14" rx="7" fill="#A8A29E"/>
  <rect x="824" y="686" width="62" height="24" rx="12" fill="#111111"/>

  <text x="84" y="118" fill="#111111" font-family="Arial, Helvetica, sans-serif" font-size="42" font-weight="700">Public Page Preview</text>
  <text x="84" y="164" fill="#78716C" font-family="Arial, Helvetica, sans-serif" font-size="20">Minimal profile card with elegant link buttons, mobile-first spacing, and muted grayscale styling.</text>
</svg>
